<?xml version="1.0" standalone="no"?>
<!DOCTYPE svg PUBLIC "-//W3C//DTD SVG 20010904//EN"
 "http://www.w3.org/TR/2001/REC-SVG-20010904/DTD/svg10.dtd">
<svg version="1.0" xmlns="http://www.w3.org/2000/svg"
 width="218.000000pt" height="218.000000pt" viewBox="0 0 218.000000 218.000000"
 preserveAspectRatio="xMidYMid meet">
<metadata>
Created by potrace 1.11, written by Peter Selinger 2001-2013
</metadata>
<g transform="translate(0.000000,218.000000) scale(0.100000,-0.100000)"
fill="#000000" stroke="none">
<path d="M470 1915 c-215 -58 -377 -213 -440 -422 -20 -68 -21 -86 -18 -430 4
-356 4 -358 29 -424 58 -151 151 -256 286 -326 123 -63 187 -73 463 -70 l235
2 0 150 0 150 -243 2 c-234 2 -245 3 -295 26 -68 32 -124 89 -154 156 -24 53
-24 55 -21 370 3 291 5 319 23 356 27 55 88 112 148 141 51 23 57 24 344 24
271 0 296 -1 344 -21 73 -28 125 -73 154 -130 l25 -48 0 -336 0 -336 23 7 c79
25 171 118 225 227 54 110 69 186 67 332 -2 101 -7 133 -29 200 -66 194 -179
309 -381 387 -58 22 -72 23 -395 25 -269 2 -346 -1 -390 -12z"/>
<path d="M1089 532 c-3 -45 -4 -268 -1 -278 2 -7 39 -11 102 -12 l98 0 0 153
-1 154 -98 -1 c-85 0 -99 -2 -100 -16z"/>
<path d="M1350 395 l0 -153 100 0 100 0 0 154 0 153 -100 -1 -100 -1 0 -152z"/>
<path d="M1619 542 c-7 -31 -4 -288 3 -293 19 -12 144 0 208 20 122 38 255
135 314 230 14 22 26 43 26 45 0 8 -550 5 -551 -2z"/>
</g>
</svg>
