<svg width="48" height="48" viewBox="0 0 48 48" fill="none" xmlns="http://www.w3.org/2000/svg">
<g filter="url(#filter0_d)">
<rect x="44" y="44" width="40" height="40" rx="20" transform="rotate(-180 44 44)" fill="#ED1C24"/>
</g>
<path d="M25.0303 13.9697C24.7374 13.6768 24.2626 13.6768 23.9697 13.9697L19.1967 18.7426C18.9038 19.0355 18.9038 19.5104 19.1967 19.8033C19.4896 20.0962 19.9645 20.0962 20.2574 19.8033L24.5 15.5607L28.7426 19.8033C29.0355 20.0962 29.5104 20.0962 29.8033 19.8033C30.0962 19.5104 30.0962 19.0355 29.8033 18.7426L25.0303 13.9697ZM25.25 33.5L25.25 14.5L23.75 14.5L23.75 33.5L25.25 33.5Z" fill="white"/>
<defs>
<filter id="filter0_d" x="0" y="0" width="48" height="48" filterUnits="userSpaceOnUse" color-interpolation-filters="sRGB">
<feFlood flood-opacity="0" result="BackgroundImageFix"/>
<feColorMatrix in="SourceAlpha" type="matrix" values="0 0 0 0 0 0 0 0 0 0 0 0 0 0 0 0 0 0 127 0"/>
<feOffset/>
<feGaussianBlur stdDeviation="2"/>
<feColorMatrix type="matrix" values="0 0 0 0 0 0 0 0 0 0 0 0 0 0 0 0 0 0 0.25 0"/>
<feBlend mode="normal" in2="BackgroundImageFix" result="effect1_dropShadow"/>
<feBlend mode="normal" in="SourceGraphic" in2="effect1_dropShadow" result="shape"/>
</filter>
</defs>
</svg>
