<svg width="48" height="48" viewBox="0 0 48 48" fill="none" xmlns="http://www.w3.org/2000/svg">
<g filter="url(#filter0_d)">
<rect x="4" y="4" width="40" height="40" rx="20" fill="white"/>
</g>
<path d="M33.5303 25.5303C33.8232 25.2374 33.8232 24.7626 33.5303 24.4697L28.7574 19.6967C28.4645 19.4038 27.9896 19.4038 27.6967 19.6967C27.4038 19.9896 27.4038 20.4645 27.6967 20.7574L31.9393 25L27.6967 29.2426C27.4038 29.5355 27.4038 30.0104 27.6967 30.3033C27.9896 30.5962 28.4645 30.5962 28.7574 30.3033L33.5303 25.5303ZM14 25.75L33 25.75L33 24.25L14 24.25L14 25.75Z" fill="#ED1C24"/>
<defs>
<filter id="filter0_d" x="0" y="0" width="48" height="48" filterUnits="userSpaceOnUse" color-interpolation-filters="sRGB">
<feFlood flood-opacity="0" result="BackgroundImageFix"/>
<feColorMatrix in="SourceAlpha" type="matrix" values="0 0 0 0 0 0 0 0 0 0 0 0 0 0 0 0 0 0 127 0"/>
<feOffset/>
<feGaussianBlur stdDeviation="2"/>
<feColorMatrix type="matrix" values="0 0 0 0 0 0 0 0 0 0 0 0 0 0 0 0 0 0 0.25 0"/>
<feBlend mode="normal" in2="BackgroundImageFix" result="effect1_dropShadow"/>
<feBlend mode="normal" in="SourceGraphic" in2="effect1_dropShadow" result="shape"/>
</filter>
</defs>
</svg>
